<svg xmlns="http://www.w3.org/2000/svg" version="1.1" xmlnsXlink="http://www.w3.org/1999/xlink" xmlnsSvgjs="http://svgjs.dev/svgjs" viewBox="0 0 2400 800" opacity="1">
    <g fill="#f7df1eff" transform="matrix(1,0,0,1,10.8282470703125,157.59309005737305)">
        <path d="M-10,10C33.75,13.75,114.58333333333334,37.791666666666664,200,28C285.41666666666663,18.208333333333336,316.66666666666663,-41.583333333333336,400,-37C483.33333333333337,-32.416666666666664,516.6666666666666,50.625,600,50C683.3333333333334,49.375,716.6666666666666,-35.833333333333336,800,-40C883.3333333333334,-44.166666666666664,916.6666666666666,22.916666666666664,1000,30C1083.3333333333333,37.083333333333336,1116.6666666666667,-9.125,1200,-6C1283.3333333333333,-2.875,1316.6666666666667,50,1400,45C1483.3333333333333,40,1516.6666666666667,-27.083333333333332,1600,-30C1683.3333333333333,-32.916666666666664,1716.6666666666667,24.958333333333336,1800,31C1883.3333333333333,37.041666666666664,1916.6666666666667,-7.25,2000,-1C2083.3333333333335,5.25,2118.75,58.708333333333336,2200,61C2281.25,63.291666666666664,2296.25,-60.625,2390,10C2483.75,80.625,3252.0833333333335,214.58333333333331,2650,400C2047.9166666666665,585.4166666666667,156.25,795.8333333333334,-500,900" transform="matrix(1,0,0,1,0,85)" opacity="0.05"></path>
        <path d="M-10,10C33.75,13.75,114.58333333333334,37.791666666666664,200,28C285.41666666666663,18.208333333333336,316.66666666666663,-41.583333333333336,400,-37C483.33333333333337,-32.416666666666664,516.6666666666666,50.625,600,50C683.3333333333334,49.375,716.6666666666666,-35.833333333333336,800,-40C883.3333333333334,-44.166666666666664,916.6666666666666,22.916666666666664,1000,30C1083.3333333333333,37.083333333333336,1116.6666666666667,-9.125,1200,-6C1283.3333333333333,-2.875,1316.6666666666667,50,1400,45C1483.3333333333333,40,1516.6666666666667,-27.083333333333332,1600,-30C1683.3333333333333,-32.916666666666664,1716.6666666666667,24.958333333333336,1800,31C1883.3333333333333,37.041666666666664,1916.6666666666667,-7.25,2000,-1C2083.3333333333335,5.25,2118.75,58.708333333333336,2200,61C2281.25,63.291666666666664,2296.25,-60.625,2390,10C2483.75,80.625,3252.0833333333335,214.58333333333331,2650,400C2047.9166666666665,585.4166666666667,156.25,795.8333333333334,-500,900" transform="matrix(1,0,0,1,0,170)" opacity="0.37"></path>
        <path d="M-10,10C33.75,13.75,114.58333333333334,37.791666666666664,200,28C285.41666666666663,18.208333333333336,316.66666666666663,-41.583333333333336,400,-37C483.33333333333337,-32.416666666666664,516.6666666666666,50.625,600,50C683.3333333333334,49.375,716.6666666666666,-35.833333333333336,800,-40C883.3333333333334,-44.166666666666664,916.6666666666666,22.916666666666664,1000,30C1083.3333333333333,37.083333333333336,1116.6666666666667,-9.125,1200,-6C1283.3333333333333,-2.875,1316.6666666666667,50,1400,45C1483.3333333333333,40,1516.6666666666667,-27.083333333333332,1600,-30C1683.3333333333333,-32.916666666666664,1716.6666666666667,24.958333333333336,1800,31C1883.3333333333333,37.041666666666664,1916.6666666666667,-7.25,2000,-1C2083.3333333333335,5.25,2118.75,58.708333333333336,2200,61C2281.25,63.291666666666664,2296.25,-60.625,2390,10C2483.75,80.625,3252.0833333333335,214.58333333333331,2650,400C2047.9166666666665,585.4166666666667,156.25,795.8333333333334,-500,900" transform="matrix(1,0,0,1,0,255)" opacity="0.68"></path>
        <path d="M-10,10C33.75,13.75,114.58333333333334,37.791666666666664,200,28C285.41666666666663,18.208333333333336,316.66666666666663,-41.583333333333336,400,-37C483.33333333333337,-32.416666666666664,516.6666666666666,50.625,600,50C683.3333333333334,49.375,716.6666666666666,-35.833333333333336,800,-40C883.3333333333334,-44.166666666666664,916.6666666666666,22.916666666666664,1000,30C1083.3333333333333,37.083333333333336,1116.6666666666667,-9.125,1200,-6C1283.3333333333333,-2.875,1316.6666666666667,50,1400,45C1483.3333333333333,40,1516.6666666666667,-27.083333333333332,1600,-30C1683.3333333333333,-32.916666666666664,1716.6666666666667,24.958333333333336,1800,31C1883.3333333333333,37.041666666666664,1916.6666666666667,-7.25,2000,-1C2083.3333333333335,5.25,2118.75,58.708333333333336,2200,61C2281.25,63.291666666666664,2296.25,-60.625,2390,10C2483.75,80.625,3252.0833333333335,214.58333333333331,2650,400C2047.9166666666665,585.4166666666667,156.25,795.8333333333334,-500,900" transform="matrix(1,0,0,1,0,340)" opacity="1.00"></path>
    </g>
</svg>