<svg viewBox="0 0 175.216 175.552"  xmlns="http://www.w3.org/2000/svg">
    <defs>
        <filter id="a" x="-.057" y="-.057" color-interpolation-filters="sRGB">
            <feGaussianBlur stdDeviation="3.531"/>
        </filter>
        <linearGradient id="b" x1="85.915" x2="86.535" y1="32.567" y2="137.092" gradientUnits="userSpaceOnUse" gradientTransform="matrix(1.13444, 0, 0, 1.13444, -10.743137, -10.778309)">
            <stop offset="0" stop-color="#57d163"/>
            <stop offset="1" stop-color="#23b33a"/>
        </linearGradient>
    </defs>
    <path fill="#b3b3b3" d="M 51.12 146.285 L 53.656 147.787 C 64.305 154.107 76.515 157.45 88.966 157.456 L 88.992 157.456 C 127.231 157.456 158.35 126.342 158.367 88.102 C 158.373 69.571 151.164 52.145 138.066 39.036 C 125.09 25.978 107.428 18.654 89.019 18.698 C 50.752 18.698 19.63 49.807 19.617 88.047 C 19.598 101.103 23.275 113.9 30.222 124.955 L 31.873 127.577 L 24.863 153.169 L 51.12 146.285 Z M 4.822 172.994 L 16.665 129.756 C 9.361 117.103 5.519 102.748 5.523 88.04 C 5.543 42.032 42.984 4.603 88.993 4.603 C 111.32 4.614 132.277 13.303 148.038 29.075 C 163.799 44.846 172.47 65.811 172.462 88.107 C 172.442 134.112 134.995 171.549 88.992 171.549 L 88.956 171.549 C 74.987 171.543 61.262 168.039 49.07 161.391 L 4.822 172.994 Z M 4.822 172.994" filter="url(#a)" style=""/>
    <path fill="#fff" d="M 3.966 172.137 L 15.808 128.898 C 8.493 116.215 4.65 101.825 4.667 87.183 C 4.686 41.175 42.128 3.744 88.137 3.744 C 110.463 3.756 131.42 12.445 147.181 28.217 C 162.941 43.989 171.614 64.954 171.605 87.25 C 171.586 133.254 134.139 170.691 88.135 170.691 L 88.1 170.691 C 74.131 170.685 60.406 167.181 48.214 160.533 L 3.966 172.137 Z" style=""/>
    <path fill="url(#linearGradient1780)" d="M 88.162 17.84 C 49.894 17.84 18.773 48.95 18.76 87.188 C 18.74 100.246 22.418 113.042 29.365 124.097 L 31.016 126.72 L 24.006 152.312 L 50.264 145.428 L 52.799 146.929 C 63.448 153.249 75.659 156.592 88.109 156.599 L 88.135 156.599 C 126.375 156.599 157.495 125.486 157.51 87.246 C 157.568 68.835 150.258 51.167 137.209 38.179 C 124.232 25.121 106.571 17.797 88.162 17.84 Z" style=""/>
    <path fill="url(#b)" d="M 88.162 17.84 C 49.894 17.84 18.773 48.95 18.76 87.188 C 18.74 100.246 22.418 113.042 29.365 124.097 L 31.016 126.721 L 24.006 152.312 L 50.264 145.428 L 52.799 146.929 C 63.448 153.249 75.659 156.591 88.109 156.598 L 88.135 156.598 C 126.375 156.598 157.495 125.485 157.51 87.245 C 157.568 68.833 150.258 51.166 137.209 38.178 C 124.232 25.121 106.571 17.796 88.162 17.84 Z" style=""/>
    <path fill="#fff" fill-rule="evenodd" d="M 67.274 52.3 C 65.712 48.827 64.066 48.757 62.581 48.696 L 58.583 48.648 C 57.192 48.648 54.933 49.17 53.023 51.257 C 51.112 53.345 45.722 58.39 45.722 68.65 C 45.722 78.911 53.196 88.827 54.238 90.22 C 55.279 91.612 68.665 113.341 89.865 121.7 C 107.481 128.648 111.066 127.266 114.891 126.919 C 118.717 126.572 127.231 121.874 128.968 117.004 C 130.704 112.134 130.705 107.961 130.185 107.088 C 129.664 106.217 128.273 105.698 126.186 104.654 C 124.098 103.611 113.847 98.566 111.935 97.869 C 110.024 97.173 108.634 96.827 107.241 98.914 C 105.85 101.001 101.858 105.697 100.641 107.088 C 99.423 108.481 98.209 108.655 96.121 107.613 C 94.033 106.57 87.318 104.367 79.35 97.262 C 73.149 91.734 68.965 84.907 67.747 82.821 C 66.528 80.734 67.617 79.605 68.663 78.565 C 69.599 77.631 70.748 76.13 71.793 74.912 C 72.838 73.696 73.182 72.825 73.876 71.436 C 74.57 70.046 74.224 68.825 73.702 67.783 C 73.181 66.74 69.128 56.426 67.274 52.301" style=""/>
</svg>